HIERARCHY
ROOT mixamorig:Hips
{
	OFFSET 0.000000 201.639420 0.000000
	CHANNELS 6 Xposition Yposition Zposition Xrotation Yrotation Zrotation
	JOINT mixamorig:Spine
	{
		OFFSET 0.006200 19.524994 -2.481800
		CHANNELS 3 Xrotation Yrotation Zrotation
		JOINT mixamorig:Spine1
		{
			OFFSET -0.000900 22.835007 -2.825400
			CHANNELS 3 Xrotation Yrotation Zrotation
			JOINT mixamorig:Spine2
			{
				OFFSET -0.020600 26.552490 -3.193300
				CHANNELS 3 Xrotation Yrotation Zrotation
				JOINT mixamorig:Neck
				{
					OFFSET -0.060000 30.701813 1.352200
					CHANNELS 3 Xrotation Yrotation Zrotation
					JOINT mixamorig:Head
					{
						OFFSET -0.087200 22.547607 3.670900
						CHANNELS 3 Xrotation Yrotation Zrotation
						JOINT mixamorig:HeadTop_End
						{
							OFFSET -0.830600 40.355194 7.893500
							CHANNELS 3 Xrotation Yrotation Zrotation
							End Site
							{
								OFFSET 0.000000 30.592346 0.000000
							}
						}
						JOINT mixamorig:RightEye
						{
							OFFSET -6.302100 18.118591 16.197100
							CHANNELS 3 Xrotation Yrotation Zrotation
							End Site
							{
								OFFSET 0.000000 30.592346 0.000000
							}
						}
						JOINT mixamorig:LeftEye
						{
							OFFSET 6.741500 18.382690 16.401899
							CHANNELS 3 Xrotation Yrotation Zrotation
							End Site
							{
								OFFSET 0.000000 30.592346 0.000000
							}
						}
					}
				}
				JOINT mixamorig:LeftShoulder
				{
					OFFSET 11.924900 18.230499 1.425400
					CHANNELS 3 Xrotation Yrotation Zrotation
					JOINT mixamorig:LeftArm
					{
						OFFSET 25.435989 -0.697632 -5.229300
						CHANNELS 3 Xrotation Yrotation Zrotation
						JOINT mixamorig:LeftForeArm
						{
							OFFSET 54.684776 0.000000 0.000000
							CHANNELS 3 Xrotation Yrotation Zrotation
							JOINT mixamorig:LeftHand
							{
								OFFSET 55.098175 0.000000 0.000000
								CHANNELS 3 Xrotation Yrotation Zrotation
								JOINT mixamorig:LeftHandMiddle1
								{
									OFFSET 23.369751 0.000000 0.000000
									CHANNELS 3 Xrotation Yrotation Zrotation
									JOINT mixamorig:LeftHandMiddle2
									{
										OFFSET 6.378677 0.000000 0.000000
										CHANNELS 3 Xrotation Yrotation Zrotation
										JOINT mixamorig:LeftHandMiddle3
										{
											OFFSET 6.148331 0.000000 0.000000
											CHANNELS 3 Xrotation Yrotation Zrotation
											JOINT mixamorig:LeftHandMiddle4
											{
												OFFSET 6.582504 0.000000 0.000000
												CHANNELS 3 Xrotation Yrotation Zrotation
												End Site
												{
													OFFSET -1.168900 6.395691 1.028606
												}
											}
										}
									}
								}
								JOINT mixamorig:LeftHandThumb1
								{
									OFFSET 7.235672 -3.848206 5.434273
									CHANNELS 3 Xrotation Yrotation Zrotation
									JOINT mixamorig:LeftHandThumb2
									{
										OFFSET 6.568451 -3.792297 3.792300
										CHANNELS 3 Xrotation Yrotation Zrotation
										JOINT mixamorig:LeftHandThumb3
										{
											OFFSET 6.063080 -3.500519 3.500518
											CHANNELS 3 Xrotation Yrotation Zrotation
											JOINT mixamorig:LeftHandThumb4
											{
												OFFSET 4.793182 -2.767334 2.767349
												CHANNELS 3 Xrotation Yrotation Zrotation
												End Site
												{
													OFFSET 0.101639 6.054260 1.275483
												}
											}
										}
									}
								}
								JOINT mixamorig:LeftHandIndex1
								{
									OFFSET 23.101074 -0.309540 4.992809
									CHANNELS 3 Xrotation Yrotation Zrotation
									JOINT mixamorig:LeftHandIndex2
									{
										OFFSET 6.226883 0.000000 0.000000
										CHANNELS 3 Xrotation Yrotation Zrotation
										JOINT mixamorig:LeftHandIndex3
										{
											OFFSET 6.094330 0.000000 0.000000
											CHANNELS 3 Xrotation Yrotation Zrotation
											JOINT mixamorig:LeftHandIndex4
											{
												OFFSET 5.482605 0.000000 0.000000
												CHANNELS 3 Xrotation Yrotation Zrotation
												End Site
												{
													OFFSET -1.427902 5.233032 0.797164
												}
											}
										}
									}
								}
								JOINT mixamorig:LeftHandRing1
								{
									OFFSET 22.299240 0.021149 -3.964172
									CHANNELS 3 Xrotation Yrotation Zrotation
									JOINT mixamorig:LeftHandRing2
									{
										OFFSET 6.321869 0.000000 0.000000
										CHANNELS 3 Xrotation Yrotation Zrotation
										JOINT mixamorig:LeftHandRing3
										{
											OFFSET 5.899796 0.000000 0.000000
											CHANNELS 3 Xrotation Yrotation Zrotation
											JOINT mixamorig:LeftHandRing4
											{
												OFFSET 6.517899 0.000000 0.000000
												CHANNELS 3 Xrotation Yrotation Zrotation
												End Site
												{
													OFFSET -1.637299 6.232208 0.980890
												}
											}
										}
									}
								}
								JOINT mixamorig:LeftHandPinky1
								{
									OFFSET 20.463791 -0.302338 -8.562233
									CHANNELS 3 Xrotation Yrotation Zrotation
									JOINT mixamorig:LeftHandPinky2
									{
										OFFSET 6.908646 0.000000 0.000000
										CHANNELS 3 Xrotation Yrotation Zrotation
										JOINT mixamorig:LeftHandPinky3
										{
											OFFSET 4.622849 0.000000 0.000000
											CHANNELS 3 Xrotation Yrotation Zrotation
											JOINT mixamorig:LeftHandPinky4
											{
												OFFSET 5.216080 0.000000 0.000000
												CHANNELS 3 Xrotation Yrotation Zrotation
												End Site
												{
													OFFSET -0.606308 5.116241 0.814926
												}
											}
										}
									}
								}
							}
						}
					}
				}
				JOINT mixamorig:RightShoulder
				{
					OFFSET -12.001300 18.284088 1.348900
					CHANNELS 3 Xrotation Yrotation Zrotation
					JOINT mixamorig:RightArm
					{
						OFFSET -25.308500 -0.751312 -5.164599
						CHANNELS 3 Xrotation Yrotation Zrotation
						JOINT mixamorig:RightForeArm
						{
							OFFSET -54.684429 0.000000 0.000000
							CHANNELS 3 Xrotation Yrotation Zrotation
							JOINT mixamorig:RightHand
							{
								OFFSET -55.150291 0.000000 0.000000
								CHANNELS 3 Xrotation Yrotation Zrotation
								JOINT mixamorig:RightHandMiddle1
								{
									OFFSET -23.317566 0.000000 0.000000
									CHANNELS 3 Xrotation Yrotation Zrotation
									JOINT mixamorig:RightHandMiddle2
									{
										OFFSET -6.378403 0.000000 0.000000
										CHANNELS 3 Xrotation Yrotation Zrotation
										JOINT mixamorig:RightHandMiddle3
										{
											OFFSET -6.148193 0.000000 0.000000
											CHANNELS 3 Xrotation Yrotation Zrotation
											JOINT mixamorig:RightHandMiddle4
											{
												OFFSET -6.583389 0.000000 0.000000
												CHANNELS 3 Xrotation Yrotation Zrotation
												End Site
												{
													OFFSET 1.171692 6.395905 1.029786
												}
											}
										}
									}
								}
								JOINT mixamorig:RightHandThumb1
								{
									OFFSET -7.190521 -3.860474 5.435846
									CHANNELS 3 Xrotation Yrotation Zrotation
									JOINT mixamorig:RightHandThumb2
									{
										OFFSET -6.567429 -3.791718 3.791708
										CHANNELS 3 Xrotation Yrotation Zrotation
										JOINT mixamorig:RightHandThumb3
										{
											OFFSET -6.062469 -3.500153 3.500166
											CHANNELS 3 Xrotation Yrotation Zrotation
											JOINT mixamorig:RightHandThumb4
											{
												OFFSET -4.792618 -2.767029 2.767022
												CHANNELS 3 Xrotation Yrotation Zrotation
												End Site
												{
													OFFSET -0.100327 6.053253 1.276754
												}
											}
										}
									}
								}
								JOINT mixamorig:RightHandIndex1
								{
									OFFSET -23.048981 -0.310791 4.992554
									CHANNELS 3 Xrotation Yrotation Zrotation
									JOINT mixamorig:RightHandIndex2
									{
										OFFSET -6.227539 0.000000 0.000000
										CHANNELS 3 Xrotation Yrotation Zrotation
										JOINT mixamorig:RightHandIndex3
										{
											OFFSET -6.095047 0.000000 0.000000
											CHANNELS 3 Xrotation Yrotation Zrotation
											JOINT mixamorig:RightHandIndex4
											{
												OFFSET -5.484772 0.000000 0.000000
												CHANNELS 3 Xrotation Yrotation Zrotation
												End Site
												{
													OFFSET 1.420593 5.237305 0.797056
												}
											}
										}
									}
								}
								JOINT mixamorig:RightHandRing1
								{
									OFFSET -22.246323 0.020569 -3.963762
									CHANNELS 3 Xrotation Yrotation Zrotation
									JOINT mixamorig:RightHandRing2
									{
										OFFSET -6.322128 0.000000 0.000000
										CHANNELS 3 Xrotation Yrotation Zrotation
										JOINT mixamorig:RightHandRing3
										{
											OFFSET -5.900024 0.000000 0.000000
											CHANNELS 3 Xrotation Yrotation Zrotation
											JOINT mixamorig:RightHandRing4
											{
												OFFSET -6.518356 0.000000 0.000000
												CHANNELS 3 Xrotation Yrotation Zrotation
												End Site
												{
													OFFSET 1.636398 6.232697 0.982186
												}
											}
										}
									}
								}
								JOINT mixamorig:RightHandPinky1
								{
									OFFSET -20.411011 -0.303314 -8.561701
									CHANNELS 3 Xrotation Yrotation Zrotation
									JOINT mixamorig:RightHandPinky2
									{
										OFFSET -6.907349 0.000000 0.000000
										CHANNELS 3 Xrotation Yrotation Zrotation
										JOINT mixamorig:RightHandPinky3
										{
											OFFSET -4.623840 0.000000 0.000000
											CHANNELS 3 Xrotation Yrotation Zrotation
											JOINT mixamorig:RightHandPinky4
											{
												OFFSET -5.218353 0.000000 0.000000
												CHANNELS 3 Xrotation Yrotation Zrotation
												End Site
												{
													OFFSET 0.602097 5.118835 0.816273
												}
											}
										}
									}
								}
							}
						}
					}
				}
			}
		}
	}
	JOINT mixamorig:LeftUpLeg
	{
		OFFSET 18.168400 -13.561905 -0.039000
		CHANNELS 3 Xrotation Yrotation Zrotation
		JOINT mixamorig:LeftLeg
		{
			OFFSET 0.577358 -80.825211 -3.695000
			CHANNELS 3 Xrotation Yrotation Zrotation
			JOINT mixamorig:LeftFoot
			{
				OFFSET -0.577356 -83.370262 -6.520700
				CHANNELS 3 Xrotation Yrotation Zrotation
				JOINT mixamorig:LeftToeBase
				{
					OFFSET 0.750401 -20.798306 25.135401
					CHANNELS 3 Xrotation Yrotation Zrotation
					JOINT mixamorig:LeftToe_End
					{
						OFFSET -0.000500 0.001200 19.917799
						CHANNELS 3 Xrotation Yrotation Zrotation
						End Site
						{
							OFFSET 0.000000 19.917805 0.000000
						}
					}
				}
			}
		}
	}
	JOINT mixamorig:RightUpLeg
	{
		OFFSET -18.162500 -13.585098 -0.041000
		CHANNELS 3 Xrotation Yrotation Zrotation
		JOINT mixamorig:RightLeg
		{
			OFFSET -0.595024 -80.945297 -3.631900
			CHANNELS 3 Xrotation Yrotation Zrotation
			JOINT mixamorig:RightFoot
			{
				OFFSET 0.595024 -83.218193 -6.561200
				CHANNELS 3 Xrotation Yrotation Zrotation
				JOINT mixamorig:RightToeBase
				{
					OFFSET -0.753601 -20.807106 25.115000
					CHANNELS 3 Xrotation Yrotation Zrotation
					JOINT mixamorig:RightToe_End
					{
						OFFSET 0.000299 0.001700 19.918200
						CHANNELS 3 Xrotation Yrotation Zrotation
						End Site
						{
							OFFSET 0.000000 19.918203 0.000000
						}
					}
				}
			}
		}
	}
}
MOTION
Frames: 5
Frame Time: 0.033333
1.238957 141.738800 1.835480 58.657098 -0.526208 -3.960997 2.844379 0.249677 0.402174 5.207742 0.409783 0.876172 5.207666 0.415914 0.892771 -25.341064 -1.529747 3.800598 -27.507178 0.816707 -5.448263 -0.000000 -0.000000 -0.000000 -0.000000 -0.000000 -0.000000 -0.000000 -0.000000 -0.000000 4.011042 -12.874875 1.180648 38.956855 -70.675738 20.363302 0.000010 -24.892817 0.000010 -14.111224 3.035215 46.153163 0.046698 2.939352 -12.775063 0.774074 2.912270 -29.764199 0.463755 2.286326 -22.929906 -0.000000 -0.000000 -0.000000 55.666151 -22.409362 -5.444471 17.239160 21.575958 2.425003 1.583711 5.499146 16.348683 0.000004 0.000001 -0.000001 1.653642 -4.083832 -22.679030 0.851748 3.043916 -31.259150 0.065222 0.872602 -8.547507 -0.000000 -0.000000 -0.000001 1.528231 8.029106 -16.750103 0.325491 1.927312 -19.170109 0.041161 0.693988 -6.788385 -0.000001 -0.000000 -0.000000 -3.230128 11.644170 -13.387714 0.336703 1.959246 -19.500701 0.089235 1.019660 -10.001800 0.000001 0.000000 -0.000000 3.772113 12.993845 6.628251 -49.965405 57.789875 62.598124 -0.000003 17.334694 -0.000010 24.844256 -0.815947 -10.303164 -0.010724 -2.441869 11.208357 0.643418 -2.363912 30.447935 0.383415 -1.852161 23.388354 0.000001 0.000000 0.000001 54.566818 21.085315 7.194902 16.888039 -23.379396 -5.157020 3.049866 -10.911834 -17.141085 0.000000 0.000001 0.000002 1.892360 4.741762 19.816800 0.724050 -2.495931 32.350283 0.044421 -0.642330 7.910226 0.000001 -0.000000 -0.000001 1.199043 -7.166170 14.928341 0.266940 -1.555621 19.473696 0.041709 -0.622507 7.664847 -0.000001 -0.000000 0.000001 -3.200653 -10.353401 11.213847 0.290814 -1.621501 20.334334 0.091263 -0.918410 11.348977 0.000000 0.000001 -0.000001 -127.623082 -6.260032 16.625266 82.939055 -2.656318 -6.307363 -12.644707 -0.326479 -0.999994 0.086674 0.000174 -0.130313 0.000000 0.000001 -0.000000 -126.351656 -1.382309 -19.670974 81.707258 2.753449 8.290412 -12.861496 0.541541 -1.116380 0.251172 -0.000007 -0.000003 0.000000 0.000000 0.000000 
1.249808 144.281769 2.620682 57.688652 -0.238393 -3.953003 2.682557 0.252665 0.425974 4.907684 0.418940 0.896919 4.907643 0.423093 0.913882 -25.323676 -1.457763 3.642475 -28.029466 0.769403 -5.045044 0.000001 -0.000000 -0.000000 0.000001 -0.000000 -0.000000 0.000001 -0.000000 -0.000000 4.018346 -12.995395 1.258257 38.087570 -70.629982 18.741718 0.000002 -24.084075 -0.000002 -15.107074 0.788975 45.063812 0.034141 2.534523 -7.726641 0.735113 2.843130 -28.988149 0.373255 2.059500 -20.543032 -0.000000 -0.000001 0.000000 56.921506 -19.311426 -5.832314 16.674373 21.447798 4.275465 1.343357 2.677425 15.734469 0.000002 -0.000000 -0.000000 2.350371 -5.090573 -18.162301 0.826008 3.001114 -30.770692 0.028616 0.578944 -5.658880 0.000000 -0.000002 -0.000001 1.116520 7.951886 -11.698104 0.284038 1.803716 -17.896807 0.007663 0.299985 -2.928542 -0.000002 0.000000 -0.000000 -3.952068 11.074847 -8.545362 0.310325 1.883111 -18.713515 0.061236 0.845780 -8.282935 -0.000001 0.000000 0.000001 3.771785 13.021087 6.826506 -47.579590 56.961421 60.788984 -0.000009 17.572455 0.000006 23.526973 0.809596 -10.489422 0.006805 -2.210685 6.791359 0.593049 -2.276177 29.204311 0.301036 -1.648772 20.692024 -0.000001 0.000001 -0.000000 55.794227 19.899360 6.931978 16.858403 -23.392314 -5.231114 2.900130 -8.563912 -17.025064 -0.000002 -0.000003 -0.000001 2.458643 5.585218 16.748389 0.670439 -2.409251 31.097107 0.021445 -0.446956 5.495213 -0.000000 0.000001 -0.000003 0.966616 -7.473991 10.772994 0.228396 -1.441994 17.999543 0.007137 -0.257816 3.166470 0.000000 0.000001 0.000003 -4.011232 -10.485939 7.583465 0.253164 -1.516083 18.959456 0.053164 -0.702381 8.655494 0.000001 -0.000001 -0.000001 -124.848522 -5.839687 16.420876 81.027122 -2.373264 -6.425340 -12.540537 -0.291412 -1.060044 0.084089 0.000173 -0.126512 0.000000 0.000002 0.000000 -123.600401 -1.335443 -19.348042 79.945363 2.176824 8.358447 -12.810004 0.500635 -0.790807 0.244351 0.000002 -0.000001 -0.000000 -0.000001 -0.000000 
1.272645 147.231552 3.484344 56.641328 -0.024796 -3.957342 2.496149 0.238853 0.466458 4.558098 0.397475 0.934711 4.558312 0.398634 0.951313 -25.230434 -1.390111 3.532343 -28.774989 0.771480 -4.677539 0.000001 0.000000 -0.000000 0.000001 0.000000 -0.000000 0.000001 0.000000 -0.000000 4.022173 -12.908004 1.330187 38.638025 -71.203957 18.453491 0.000010 -21.792431 -0.000009 -18.190822 -2.244496 42.633573 0.035829 2.384881 -5.870945 0.720978 2.817506 -28.701858 0.342383 1.975170 -19.665745 -0.000001 0.000001 -0.000000 57.419939 -18.181497 -6.000798 16.459636 21.384332 4.962858 1.251661 1.635373 15.508517 0.000001 0.000005 0.000004 2.639849 -5.445478 -16.495091 0.816623 2.985336 -30.591126 0.018893 0.470591 -4.597263 -0.000001 -0.000001 0.000000 0.959663 7.914722 -9.840944 0.269405 1.757895 -17.426490 0.002057 0.154541 -1.508344 -0.000001 0.000000 0.000001 -4.209047 10.851458 -6.771729 0.300845 1.854939 -18.422980 0.052246 0.781581 -7.650265 0.000000 0.000000 0.000001 3.768921 13.159011 6.905337 -45.842816 55.923851 59.666579 0.000004 17.116751 0.000000 21.458095 2.060638 -10.030082 0.015156 -2.127087 5.170606 0.575107 -2.243720 28.748140 0.273154 -1.573033 19.700571 0.000002 -0.000001 0.000001 56.253305 19.465928 6.849383 16.848303 -23.401237 -5.257182 2.845412 -7.703120 -16.978302 0.000001 -0.000000 0.000002 2.686867 5.884210 15.625222 0.651322 -2.377295 30.639225 0.015077 -0.374819 4.606048 -0.000000 -0.000002 0.000000 0.865453 -7.585405 9.245596 0.214943 -1.399973 17.457895 0.001623 -0.123084 1.511255 -0.000000 0.000000 0.000001 -4.320890 -10.517700 6.248793 0.240021 -1.477289 18.455936 0.041694 -0.622501 7.664761 0.000000 -0.000001 -0.000002 -121.710993 -5.498907 16.150126 78.749376 -1.902092 -6.506656 -12.337124 -0.260157 -1.213428 0.081180 0.000168 -0.122162 0.000000 -0.000001 0.000000 -120.457325 -1.359474 -18.889831 77.747879 1.477108 8.446538 -12.623486 0.449977 -0.431276 0.237512 -0.000004 -0.000000 0.000000 -0.000001 -0.000000 
1.273865 150.548187 4.417984 55.210256 0.122274 -3.984443 2.357962 0.227791 0.501976 4.284803 0.376323 0.963700 4.285316 0.374997 0.980044 -24.915391 -1.455768 3.647245 -30.248913 0.565022 -5.038181 0.000000 0.000000 0.000000 0.000000 0.000000 0.000000 0.000000 0.000000 0.000000 4.017483 -12.712856 1.287067 36.443974 -72.484898 15.353487 0.000010 -18.428848 0.000006 -20.998138 -5.439317 38.170017 0.035819 2.384891 -5.870950 0.720984 2.817508 -28.701869 0.342381 1.975176 -19.665749 -0.000000 -0.000001 0.000001 57.419939 -18.181497 -6.000816 16.459632 21.384327 4.962878 1.251668 1.635388 15.508542 0.000004 0.000001 -0.000001 2.639830 -5.445473 -16.495098 0.816615 2.985335 -30.591106 0.018892 0.470602 -4.597259 -0.000000 0.000003 0.000001 0.959650 7.914722 -9.840958 0.269441 1.757865 -17.426493 0.002028 0.154560 -1.508368 -0.000001 -0.000000 -0.000000 -4.209046 10.851466 -6.771744 0.300840 1.854922 -18.422984 0.052258 0.781610 -7.650252 -0.000001 0.000001 0.000000 3.757408 13.383443 7.051968 -44.618925 54.694847 58.953876 -0.000016 16.146857 0.000015 19.136049 1.981447 -7.615470 0.015153 -2.127058 5.170614 0.575079 -2.243714 28.748147 0.273156 -1.573037 19.700569 0.000002 0.000000 0.000005 56.253298 19.465955 6.849385 16.848320 -23.401234 -5.257171 2.845411 -7.703099 -16.978320 0.000001 -0.000006 -0.000002 2.686863 5.884222 15.625238 0.651316 -2.377304 30.639235 0.015088 -0.374819 4.606045 -0.000000 0.000002 0.000001 0.865462 -7.585401 9.245614 0.214964 -1.399988 17.457895 0.001622 -0.123079 1.511254 -0.000001 0.000000 -0.000001 -4.320891 -10.517685 6.248822 0.240012 -1.477273 18.455926 0.041698 -0.622490 7.664777 0.000002 -0.000001 -0.000001 -117.991777 -5.118572 15.929062 76.166014 -1.389436 -6.478689 -12.043765 -0.240571 -1.393964 0.077935 0.000128 -0.117378 0.000000 -0.000001 -0.000000 -116.692798 -1.535677 -18.298010 75.186640 0.692064 8.474044 -12.323826 0.395341 -0.066826 0.230664 -0.000007 0.000000 -0.000000 0.000000 -0.000000 
1.253670 154.232803 5.501022 53.284662 0.230448 -3.989083 2.298327 0.236120 0.511075 4.133943 0.377966 0.958836 4.134560 0.375558 0.975404 -24.605241 -1.532192 3.767955 -31.250229 0.346541 -5.386199 0.000000 0.000000 -0.000000 0.000000 0.000000 -0.000000 0.000000 0.000000 -0.000000 4.008439 -12.597813 1.160646 28.082992 -74.012019 6.011901 0.000011 -14.490292 0.000003 -22.728447 -8.479109 32.000304 0.035821 2.384861 -5.870979 0.720967 2.817550 -28.701848 0.342380 1.975167 -19.665756 -0.000000 0.000001 0.000001 57.419939 -18.181514 -6.000808 16.459629 21.384335 4.962872 1.251656 1.635392 15.508537 0.000000 0.000002 0.000002 2.639838 -5.445493 -16.495110 0.816631 2.985337 -30.591096 0.018891 0.470610 -4.597262 0.000000 0.000001 0.000004 0.959668 7.914716 -9.840969 0.269429 1.757858 -17.426495 0.002036 0.154567 -1.508362 0.000001 -0.000000 0.000001 -4.209044 10.851457 -6.771740 0.300844 1.854922 -18.422986 0.052255 0.781604 -7.650246 -0.000001 -0.000000 0.000000 3.736630 13.613845 7.375944 -43.646237 53.408883 58.370045 0.000007 14.748426 0.000003 17.790300 1.085691 -2.903411 0.015161 -2.127051 5.170627 0.575060 -2.243719 28.748143 0.273151 -1.573021 19.700578 0.000001 -0.000002 0.000002 56.253318 19.465949 6.849382 16.848309 -23.401232 -5.257174 2.845424 -7.703116 -16.978291 0.000002 -0.000000 0.000002 2.686873 5.884219 15.625234 0.651307 -2.377277 30.639238 0.015080 -0.374805 4.606040 0.000001 -0.000000 -0.000002 0.865446 -7.585404 9.245605 0.214959 -1.399961 17.457894 0.001625 -0.123099 1.511253 -0.000002 0.000000 -0.000002 -4.320891 -10.517665 6.248827 0.240008 -1.477269 18.455922 0.041707 -0.622508 7.664761 0.000001 -0.000000 -0.000001 -113.551840 -4.603825 15.798870 73.272979 -0.915249 -6.333973 -11.696632 -0.208441 -1.579590 0.075056 0.000137 -0.113003 -0.000000 0.000000 -0.000000 -112.192510 -1.829326 -17.557469 72.280695 -0.163774 8.378504 -11.940366 0.335089 0.321600 0.223805 -0.000004 0.000001 -0.000000 -0.000000 -0.000000 
